# xmcd
#
# Track frame offsets: 
#        150
#        18210
#        36680
#
# Disc length: 726 seconds
#
# Revision: 3
# Processed by: cddbd v1.5.2PL0 Copyright (c) Steve Scherf et al.
# Submitted via: ExactAudioCopy v1.3
#
DISCID=1f02d403
DTITLE=T.M.Revolution - WHITE BREATH
DYEAR=1997
DGENRE=JPop
TTITLE0=WHITE BREATH
TTITLE1=OH! MY GIRL,OH MY GOD!
TTITLE2=WHITE BREATH (Original Backing Track)
EXTD=
EXTT0=
EXTT1=
EXTT2=
PLAYORDER=
